<?xml version="1.0" encoding="UTF-8" standalone="no"?>
<!-- Created with Inkscape (http://www.inkscape.org/) -->

<svg
   xmlns:dc="http://purl.org/dc/elements/1.1/"
   xmlns:cc="http://creativecommons.org/ns#"
   xmlns:rdf="http://www.w3.org/1999/02/22-rdf-syntax-ns#"
   xmlns:svg="http://www.w3.org/2000/svg"
   xmlns="http://www.w3.org/2000/svg"
   xmlns:sodipodi="http://sodipodi.sourceforge.net/DTD/sodipodi-0.dtd"
   xmlns:inkscape="http://www.inkscape.org/namespaces/inkscape"
   id="svg11171"
   version="1.1"
   inkscape:version="0.91 r13725"
   xml:space="preserve"
   width="378.4386"
   height="175.40866"
   viewBox="0 0 378.4386 175.40866"
   sodipodi:docname="smith.svg"
   inkscape:export-filename="/home/igi-111/Work/Rust/smith/icon/smith.png"
   inkscape:export-xdpi="90"
   inkscape:export-ydpi="90"><metadata
     id="metadata11177"><rdf:RDF><cc:Work
         rdf:about=""><dc:format>image/svg+xml</dc:format><dc:type
           rdf:resource="http://purl.org/dc/dcmitype/StillImage" /><dc:title /></cc:Work></rdf:RDF></metadata><defs
     id="defs11175"><clipPath
       clipPathUnits="userSpaceOnUse"
       id="clipPath11187"><path
         d="m 600.709,576.12 80.346,-43 118.945,0 0,4.443 -72.046,38.557 -127.245,0 z"
         id="path11189"
         inkscape:connector-curvature="0" /></clipPath><linearGradient
       x1="0"
       y1="0"
       x2="1"
       y2="0"
       gradientUnits="userSpaceOnUse"
       gradientTransform="matrix(14.84704,-63.545456,-63.545456,-14.84704,692.56982,605.70221)"
       spreadMethod="pad"
       id="linearGradient11199"><stop
         style="stop-opacity:1;stop-color:#ffffff"
         offset="0"
         id="stop11201" /><stop
         style="stop-opacity:0;stop-color:#ffffff"
         offset="1"
         id="stop11203" /></linearGradient><mask
       maskUnits="userSpaceOnUse"
       x="0"
       y="0"
       width="1"
       height="1"
       id="mask11205"><g
         id="g11207"><g
           id="g11209"><g
             id="g11211"><g
               id="g11213"><path
                 d="m -32768,32767 65535,0 0,-65535 -65535,0 0,65535 z"
                 style="fill:url(#linearGradient11199);stroke:none"
                 id="path11215"
                 inkscape:connector-curvature="0" /></g></g></g></g></mask><linearGradient
       x1="0"
       y1="0"
       x2="1"
       y2="0"
       gradientUnits="userSpaceOnUse"
       gradientTransform="matrix(14.84704,-63.545456,-63.545456,-14.84704,692.56982,605.70221)"
       spreadMethod="pad"
       id="linearGradient11221"><stop
         style="stop-opacity:1;stop-color:#e2e1b3"
         offset="0"
         id="stop11223" /><stop
         style="stop-opacity:1;stop-color:#e2e1b3"
         offset="1"
         id="stop11225" /></linearGradient><clipPath
       clipPathUnits="userSpaceOnUse"
       id="clipPath11233"><path
         d="m 593.174,353.719 80.346,-42.999 126.48,0 0,6.786 -67.666,36.213 -139.16,0 z"
         id="path11235"
         inkscape:connector-curvature="0" /></clipPath><linearGradient
       x1="0"
       y1="0"
       x2="1"
       y2="0"
       gradientUnits="userSpaceOnUse"
       gradientTransform="matrix(15.298689,-65.478516,-65.478516,-15.298689,690.62872,384.85538)"
       spreadMethod="pad"
       id="linearGradient11245"><stop
         style="stop-opacity:1;stop-color:#ffffff"
         offset="0"
         id="stop11247" /><stop
         style="stop-opacity:0;stop-color:#ffffff"
         offset="1"
         id="stop11249" /></linearGradient><mask
       maskUnits="userSpaceOnUse"
       x="0"
       y="0"
       width="1"
       height="1"
       id="mask11251"><g
         id="g11253"><g
           id="g11255"><g
             id="g11257"><g
               id="g11259"><path
                 d="m -32768,32767 65535,0 0,-65535 -65535,0 0,65535 z"
                 style="fill:url(#linearGradient11245);stroke:none"
                 id="path11261"
                 inkscape:connector-curvature="0" /></g></g></g></g></mask><linearGradient
       x1="0"
       y1="0"
       x2="1"
       y2="0"
       gradientUnits="userSpaceOnUse"
       gradientTransform="matrix(15.298689,-65.478516,-65.478516,-15.298689,690.62872,384.85538)"
       spreadMethod="pad"
       id="linearGradient11267"><stop
         style="stop-opacity:1;stop-color:#e2e1b3"
         offset="0"
         id="stop11269" /><stop
         style="stop-opacity:1;stop-color:#e2e1b3"
         offset="1"
         id="stop11271" /></linearGradient><clipPath
       clipPathUnits="userSpaceOnUse"
       id="clipPath11279"><path
         d="m 197.308,92.829 -120.451,0 80.347,-43 120.451,0 -80.347,43 z"
         id="path11281"
         inkscape:connector-curvature="0" /></clipPath><linearGradient
       x1="0"
       y1="0"
       x2="1"
       y2="0"
       gradientUnits="userSpaceOnUse"
       gradientTransform="matrix(14.58942,-62.442844,-62.442844,-14.58942,165.52766,121.52446)"
       spreadMethod="pad"
       id="linearGradient11291"><stop
         style="stop-opacity:1;stop-color:#ffffff"
         offset="0"
         id="stop11293" /><stop
         style="stop-opacity:0;stop-color:#ffffff"
         offset="1"
         id="stop11295" /></linearGradient><mask
       maskUnits="userSpaceOnUse"
       x="0"
       y="0"
       width="1"
       height="1"
       id="mask11297"><g
         id="g11299"><g
           id="g11301"><g
             id="g11303"><g
               id="g11305"><path
                 d="m -32768,32767 65535,0 0,-65535 -65535,0 0,65535 z"
                 style="fill:url(#linearGradient11291);stroke:none"
                 id="path11307"
                 inkscape:connector-curvature="0" /></g></g></g></g></mask><linearGradient
       x1="0"
       y1="0"
       x2="1"
       y2="0"
       gradientUnits="userSpaceOnUse"
       gradientTransform="matrix(14.58942,-62.442844,-62.442844,-14.58942,165.52766,121.52446)"
       spreadMethod="pad"
       id="linearGradient11313"><stop
         style="stop-opacity:1;stop-color:#e2e1b3"
         offset="0"
         id="stop11315" /><stop
         style="stop-opacity:1;stop-color:#e2e1b3"
         offset="1"
         id="stop11317" /></linearGradient><clipPath
       clipPathUnits="userSpaceOnUse"
       id="clipPath11325"><path
         d="m 479.473,99.871 -145.771,0 80.347,-43 145.771,0 -80.347,43 z"
         id="path11327"
         inkscape:connector-curvature="0" /></clipPath><linearGradient
       x1="0"
       y1="0"
       x2="1"
       y2="0"
       gradientUnits="userSpaceOnUse"
       gradientTransform="matrix(15.549323,-66.551231,-66.551231,-15.549323,434.26144,131.86952)"
       spreadMethod="pad"
       id="linearGradient11337"><stop
         style="stop-opacity:1;stop-color:#ffffff"
         offset="0"
         id="stop11339" /><stop
         style="stop-opacity:0;stop-color:#ffffff"
         offset="1"
         id="stop11341" /></linearGradient><mask
       maskUnits="userSpaceOnUse"
       x="0"
       y="0"
       width="1"
       height="1"
       id="mask11343"><g
         id="g11345"><g
           id="g11347"><g
             id="g11349"><g
               id="g11351"><path
                 d="m -32768,32767 65535,0 0,-65535 -65535,0 0,65535 z"
                 style="fill:url(#linearGradient11337);stroke:none"
                 id="path11353"
                 inkscape:connector-curvature="0" /></g></g></g></g></mask><linearGradient
       x1="0"
       y1="0"
       x2="1"
       y2="0"
       gradientUnits="userSpaceOnUse"
       gradientTransform="matrix(15.549323,-66.551231,-66.551231,-15.549323,434.26144,131.86952)"
       spreadMethod="pad"
       id="linearGradient11359"><stop
         style="stop-opacity:1;stop-color:#e2e1b3"
         offset="0"
         id="stop11361" /><stop
         style="stop-opacity:1;stop-color:#e2e1b3"
         offset="1"
         id="stop11363" /></linearGradient><clipPath
       clipPathUnits="userSpaceOnUse"
       id="clipPath11371"><path
         d="m 558.392,93.687 80.348,-43 161.26,0 0,27.041 -29.82,15.959 -211.788,0 z"
         id="path11373"
         inkscape:connector-curvature="0" /></clipPath><linearGradient
       x1="0"
       y1="0"
       x2="1"
       y2="0"
       gradientUnits="userSpaceOnUse"
       gradientTransform="matrix(18.052036,-77.262871,-77.262871,-18.052036,689.94849,134.29611)"
       spreadMethod="pad"
       id="linearGradient11383"><stop
         style="stop-opacity:1;stop-color:#ffffff"
         offset="0"
         id="stop11385" /><stop
         style="stop-opacity:0;stop-color:#ffffff"
         offset="1"
         id="stop11387" /></linearGradient><mask
       maskUnits="userSpaceOnUse"
       x="0"
       y="0"
       width="1"
       height="1"
       id="mask11389"><g
         id="g11391"><g
           id="g11393"><g
             id="g11395"><g
               id="g11397"><path
                 d="m -32768,32767 65535,0 0,-65535 -65535,0 0,65535 z"
                 style="fill:url(#linearGradient11383);stroke:none"
                 id="path11399"
                 inkscape:connector-curvature="0" /></g></g></g></g></mask><linearGradient
       x1="0"
       y1="0"
       x2="1"
       y2="0"
       gradientUnits="userSpaceOnUse"
       gradientTransform="matrix(18.052036,-77.262871,-77.262871,-18.052036,689.94849,134.29611)"
       spreadMethod="pad"
       id="linearGradient11405"><stop
         style="stop-opacity:1;stop-color:#e2e1b3"
         offset="0"
         id="stop11407" /><stop
         style="stop-opacity:1;stop-color:#e2e1b3"
         offset="1"
         id="stop11409" /></linearGradient><clipPath
       clipPathUnits="userSpaceOnUse"
       id="clipPath11417"><path
         d="m 132.366,447.394 -78.728,-93.675 80.347,-43 242.95,-0.379 -244.569,137.054 z"
         id="path11419"
         inkscape:connector-curvature="0" /></clipPath><linearGradient
       x1="0"
       y1="0"
       x2="1"
       y2="0"
       gradientUnits="userSpaceOnUse"
       gradientTransform="matrix(31.509632,-134.8615,-134.8615,-31.509632,181.61757,476.13235)"
       spreadMethod="pad"
       id="linearGradient11429"><stop
         style="stop-opacity:1;stop-color:#ffffff"
         offset="0"
         id="stop11431" /><stop
         style="stop-opacity:0;stop-color:#ffffff"
         offset="1"
         id="stop11433" /></linearGradient><mask
       maskUnits="userSpaceOnUse"
       x="0"
       y="0"
       width="1"
       height="1"
       id="mask11435"><g
         id="g11437"><g
           id="g11439"><g
             id="g11441"><g
               id="g11443"><path
                 d="m -32768,32767 65535,0 0,-65535 -65535,0 0,65535 z"
                 style="fill:url(#linearGradient11429);stroke:none"
                 id="path11445"
                 inkscape:connector-curvature="0" /></g></g></g></g></mask><linearGradient
       x1="0"
       y1="0"
       x2="1"
       y2="0"
       gradientUnits="userSpaceOnUse"
       gradientTransform="matrix(31.509632,-134.8615,-134.8615,-31.509632,181.61757,476.13235)"
       spreadMethod="pad"
       id="linearGradient11451"><stop
         style="stop-opacity:1;stop-color:#e2e1b3"
         offset="0"
         id="stop11453" /><stop
         style="stop-opacity:1;stop-color:#e2e1b3"
         offset="1"
         id="stop11455" /></linearGradient><clipPath
       clipPathUnits="userSpaceOnUse"
       id="clipPath11463"><path
         d="m 456.653,580.653 -112.894,0 80.347,-43 112.894,0 -80.347,43 z"
         id="path11465"
         inkscape:connector-curvature="0" /></clipPath><linearGradient
       x1="0"
       y1="0"
       x2="1"
       y2="0"
       gradientUnits="userSpaceOnUse"
       gradientTransform="matrix(14.30295,-61.216747,-61.216747,-14.30295,428.88162,608.36285)"
       spreadMethod="pad"
       id="linearGradient11475"><stop
         style="stop-opacity:1;stop-color:#ffffff"
         offset="0"
         id="stop11477" /><stop
         style="stop-opacity:0;stop-color:#ffffff"
         offset="1"
         id="stop11479" /></linearGradient><mask
       maskUnits="userSpaceOnUse"
       x="0"
       y="0"
       width="1"
       height="1"
       id="mask11481"><g
         id="g11483"><g
           id="g11485"><g
             id="g11487"><g
               id="g11489"><path
                 d="m -32768,32767 65535,0 0,-65535 -65535,0 0,65535 z"
                 style="fill:url(#linearGradient11475);stroke:none"
                 id="path11491"
                 inkscape:connector-curvature="0" /></g></g></g></g></mask><linearGradient
       x1="0"
       y1="0"
       x2="1"
       y2="0"
       gradientUnits="userSpaceOnUse"
       gradientTransform="matrix(14.30295,-61.216747,-61.216747,-14.30295,428.88162,608.36285)"
       spreadMethod="pad"
       id="linearGradient11497"><stop
         style="stop-opacity:1;stop-color:#e2e1b3"
         offset="0"
         id="stop11499" /><stop
         style="stop-opacity:1;stop-color:#e2e1b3"
         offset="1"
         id="stop11501" /></linearGradient><clipPath
       clipPathUnits="userSpaceOnUse"
       id="clipPath11509"><path
         d="m 206.361,586.796 -144.653,0 80.347,-43 144.653,0 -80.347,43 z"
         id="path11511"
         inkscape:connector-curvature="0" /></clipPath><linearGradient
       x1="0"
       y1="0"
       x2="1"
       y2="0"
       gradientUnits="userSpaceOnUse"
       gradientTransform="matrix(15.506929,-66.369789,-66.369789,-15.506929,161.74243,618.6485)"
       spreadMethod="pad"
       id="linearGradient11521"><stop
         style="stop-opacity:1;stop-color:#ffffff"
         offset="0"
         id="stop11523" /><stop
         style="stop-opacity:0;stop-color:#ffffff"
         offset="1"
         id="stop11525" /></linearGradient><mask
       maskUnits="userSpaceOnUse"
       x="0"
       y="0"
       width="1"
       height="1"
       id="mask11527"><g
         id="g11529"><g
           id="g11531"><g
             id="g11533"><g
               id="g11535"><path
                 d="m -32768,32767 65535,0 0,-65535 -65535,0 0,65535 z"
                 style="fill:url(#linearGradient11521);stroke:none"
                 id="path11537"
                 inkscape:connector-curvature="0" /></g></g></g></g></mask><linearGradient
       x1="0"
       y1="0"
       x2="1"
       y2="0"
       gradientUnits="userSpaceOnUse"
       gradientTransform="matrix(15.506929,-66.369789,-66.369789,-15.506929,161.74243,618.6485)"
       spreadMethod="pad"
       id="linearGradient11543"><stop
         style="stop-opacity:1;stop-color:#e2e1b3"
         offset="0"
         id="stop11545" /><stop
         style="stop-opacity:1;stop-color:#e2e1b3"
         offset="1"
         id="stop11547" /></linearGradient><clipPath
       clipPathUnits="userSpaceOnUse"
       id="clipPath11555"><path
         d="M 0,800 800,800 800,0 0,0 0,800 Z"
         id="path11557"
         inkscape:connector-curvature="0" /></clipPath><clipPath
       clipPathUnits="userSpaceOnUse"
       id="clipPath11827"><path
         d="m 728.26,203.228 c -4.853,0 -8.786,-4.315 -8.786,-9.639 l 0,0 0,-5.824 c 0,-5.322 3.933,-9.638 8.786,-9.638 l 0,0 8.238,0 c 4.853,0 8.787,4.316 8.787,9.638 l 0,0 0,5.824 c 0,5.324 -3.934,9.639 -8.787,9.639 l 0,0 -8.238,0 z"
         id="path11829"
         inkscape:connector-curvature="0" /></clipPath><clipPath
       clipPathUnits="userSpaceOnUse"
       id="clipPath11839"><path
         d="M 0,800 800,800 800,0 0,0 0,800 Z"
         id="path11841"
         inkscape:connector-curvature="0" /></clipPath><clipPath
       clipPathUnits="userSpaceOnUse"
       id="clipPath12395"><path
         d="m 44.5112,395.795 107.3138,0 0,-53.657 -107.3138,0 0,53.657 z"
         id="path12397"
         inkscape:connector-curvature="0" /></clipPath><clipPath
       clipPathUnits="userSpaceOnUse"
       id="clipPath12411"><path
         d="m 51.7155,442.843 39.6755,0 0,-34.846 -39.6755,0 0,34.846 z"
         id="path12413"
         inkscape:connector-curvature="0" /></clipPath><clipPath
       clipPathUnits="userSpaceOnUse"
       id="clipPath12441"><path
         d="m 137.082,170.798 c 0,0 -47.236,4.42 -47.236,-33.764 l 0,0 c 0,0 -2.192,-21.743 -12.99,-34.294 l 0,0 59.382,0 1.688,0 59.382,0 c -10.797,12.551 -12.99,34.294 -12.99,34.294 l 0,0 c 0,31.006 -31.146,33.921 -42.856,33.921 l 0,0 c -2.711,0 -4.38,-0.157 -4.38,-0.157"
         id="path12443"
         inkscape:connector-curvature="0" /></clipPath><clipPath
       clipPathUnits="userSpaceOnUse"
       id="clipPath12453"><path
         d="M 0,800 800,800 800,0 0,0 0,800 Z"
         id="path12455"
         inkscape:connector-curvature="0" /></clipPath><clipPath
       clipPathUnits="userSpaceOnUse"
       id="clipPath12513"><path
         d="m 138.012,195.194 -0.991,0 -6.074,0 -6.58,-15.535 13.16,0 -0.02,0 13.159,0 -6.58,15.535 -6.074,0 z"
         id="path12515"
         inkscape:connector-curvature="0" /></clipPath><clipPath
       clipPathUnits="userSpaceOnUse"
       id="clipPath12523"><path
         d="M 0,800 800,800 800,0 0,0 0,800 Z"
         id="path12525"
         inkscape:connector-curvature="0" /></clipPath><clipPath
       clipPathUnits="userSpaceOnUse"
       id="clipPath12669"><path
         d="m 660.874,468.819 -45.128,0 c 0,0 -19.434,-0.923 -20.945,-26.297 l 0,0 c -0.491,-8.257 -0.846,-17.342 -1.101,-25.845 l 0,0 134.347,0 c -0.255,8.503 -0.609,17.588 -1.101,25.845 l 0,0 c -1.512,25.374 -20.945,26.297 -20.945,26.297 l 0,0 -45.127,0 z"
         id="path12671"
         inkscape:connector-curvature="0" /></clipPath><clipPath
       clipPathUnits="userSpaceOnUse"
       id="clipPath12699"><path
         d="M 0,800 800,800 800,0 0,0 0,800 Z"
         id="path12701"
         inkscape:connector-curvature="0" /></clipPath></defs><sodipodi:namedview
     pagecolor="#ffffff"
     bordercolor="#666666"
     borderopacity="1"
     objecttolerance="10"
     gridtolerance="10"
     guidetolerance="10"
     inkscape:pageopacity="0"
     inkscape:pageshadow="2"
     inkscape:window-width="1242"
     inkscape:window-height="1366"
     id="namedview11173"
     showgrid="false"
     fit-margin-top="0"
     fit-margin-left="0"
     fit-margin-right="0"
     fit-margin-bottom="0"
     inkscape:zoom="7.552"
     inkscape:cx="341.78013"
     inkscape:cy="57.549092"
     inkscape:window-x="3852"
     inkscape:window-y="48"
     inkscape:window-maximized="0"
     inkscape:current-layer="g12697" /><g
     id="g11179"
     inkscape:groupmode="layer"
     inkscape:label="24391-NVINJ6"
     transform="matrix(1.25,0,0,-1.25,-431.25692,485.4685)"><g
       id="g11321" /><g
       id="g11413" /><g
       id="g12519" /><g
       id="g12695"
       transform="matrix(1.9764356,0,0,1.9764356,-299.22497,-92.155989)"
       inkscape:export-xdpi="90"
       inkscape:export-ydpi="90"><g
         id="g12697"
         clip-path="url(#clipPath12699)"><g
           id="g12989"
           transform="translate(382.45573,222.93302)"><path
             d="m 0,0 -31.237,0 -3.5,4.537 -21.763,0 0,3 23.237,0 L -29.763,3 0,3 0,0 Z"
             style="fill:#4c4c51;fill-opacity:1;fill-rule:nonzero;stroke:none"
             id="path12991"
             inkscape:connector-curvature="0" /></g><path
           d="m 472.63597,185.88739 -6,0 0,12.036 6,0 0,-12.036 z"
           style="fill:#9a999e;fill-opacity:1;fill-rule:nonzero;stroke:none"
           id="path12993"
           inkscape:connector-curvature="0" /><path
           d="m 479.13597,179.81839 -6.5,0 0,24.276 6.5,0 0,-24.276 z"
           style="fill:#190808;fill-opacity:1;fill-rule:nonzero;stroke:none"
           id="path12995"
           inkscape:connector-curvature="0" /><path
           d="m 336.08213,186.26517 6,0 0,12.036 -6,0 0,-12.036 z"
           style="fill:#9a999e;fill-opacity:1;fill-rule:nonzero;stroke:none"
           id="path12997"
           inkscape:connector-curvature="0" /><path
           d="m 329.58213,180.19617 6.5,0 0,24.276 -6.5,0 0,-24.276 z"
           style="fill:#190808;fill-opacity:1;fill-rule:nonzero;stroke:none"
           id="path12999"
           inkscape:connector-curvature="0" /><path
           d="m 458.05735,202.13 -106.84627,0 0,15 106.84627,0 0,-15 z"
           style="fill:#190808;fill-opacity:1;fill-rule:nonzero;stroke:none"
           id="path13001"
           inkscape:connector-curvature="0" /><g
           id="g13003"
           transform="matrix(0.83641045,0,0,1,468.9095,191.7421)"><path
             d="m 0,0 c 0,-6.704 -4.577,-12.138 -10.224,-12.138 l -132.886,0 c -5.646,0 -10.223,5.434 -10.223,12.138 0,6.704 4.577,12.138 10.223,12.138 l 132.886,0 C -4.577,12.138 0,6.704 0,0"
             style="fill:#444242;fill-opacity:1;fill-rule:nonzero;stroke:none"
             id="path13005"
             inkscape:connector-curvature="0" /></g><path
           d="m 349.9564,203.79396 108.86102,0.0758 -0.009,-24.26576 -108.85155,0 z"
           style="fill:#9a999e;fill-opacity:1;fill-rule:nonzero;stroke:none"
           id="path13007"
           inkscape:connector-curvature="0"
           sodipodi:nodetypes="ccccc" /><path
           d="m 463.575,172.13 -116.625,0 0,12.524 116.625,0 0,-12.524 z"
           style="fill:#563324;fill-opacity:1;fill-rule:nonzero;stroke:none"
           id="path13023"
           inkscape:connector-curvature="0" /><path
           d="m 455.171,243.13 -100.188,0 0,-58.476 100.188,0 0,58.476 z"
           style="fill:#d9d2c6;fill-opacity:1;fill-rule:nonzero;stroke:none"
           id="path13281"
           inkscape:connector-curvature="0" /><path
           d="m 406.76,190.654 -5.812,0 0,-6 5.812,0 0,6 z m -10.687,-6 0,5.25 c 0,3.728 3.022,6.75 6.75,6.75 l 1.687,0 c 3.728,0 6.75,-3.022 6.75,-6.75 l 0,-5.25"
           style="fill:#7b7a7f;fill-opacity:1;fill-rule:nonzero;stroke:none"
           id="path13283"
           inkscape:connector-curvature="0" /><path
           d="m 333.75466,228.95216 -6,0 0,13 6,0 0,-13 z"
           style="fill:#190808;fill-opacity:1;fill-rule:nonzero;stroke:none"
           id="path13285"
           inkscape:connector-curvature="0" /><path
           d="m 363.365,184.654 -0.848,0 0,58.476 0.848,0 0,-58.476 z"
           style="fill:#b14900;fill-opacity:1;fill-rule:nonzero;stroke:none"
           id="path13287"
           inkscape:connector-curvature="0" /></g></g><g
       transform="scale(1,-1)"
       style="font-style:normal;font-weight:normal;font-size:56px;line-height:125%;font-family:sans-serif;letter-spacing:0px;word-spacing:0px;fill:#f3d6a1;fill-opacity:1;stroke:none;stroke-width:1px;stroke-linecap:butt;stroke-linejoin:miter;stroke-opacity:1"
       id="text13849"
       inkscape:export-xdpi="90"
       inkscape:export-ydpi="90"><path
         d="m 471.74899,-360.42779 -12.488,0 0,1.344 5.096,0 0,37.744 -5.488,0 0,1.344 13.888,0 0,-1.344 -5.544,0 0,-37.016 11.144,38.36 2.072,0 10.36,-38.36 0,37.016 -5.152,0 0,1.344 15.904,0 0,-1.344 -5.096,0 0,-37.744 5.096,0 0,-1.344 -12.152,0 -8.624,31.024 -9.016,-31.024 z"
         style="font-style:normal;font-variant:normal;font-weight:normal;font-stretch:normal;font-family:'Berenis ADF Pro';-inkscape-font-specification:'Berenis ADF Pro';fill:#f3d6a1;fill-opacity:1"
         id="path13875" /></g><g
       transform="scale(1,-1)"
       style="font-style:normal;font-variant:normal;font-weight:normal;font-stretch:normal;font-size:56px;line-height:125%;font-family:'Berenis ADF Pro Math';-inkscape-font-specification:'Berenis ADF Pro Math';letter-spacing:0px;word-spacing:0px;fill:#000000;fill-opacity:1;stroke:none;stroke-width:1px;stroke-linecap:butt;stroke-linejoin:miter;stroke-opacity:1"
       id="text13835"><path
         d="m 443.2481,-320.89465 c -7.112,0 -10.64,-7.336 -11.816,-14.616 l -2.24,0 0.168,15.288 2.072,0 -0.056,-5.936 c 2.24,4.032 7.336,6.16 11.424,6.16 7,0 12.208,-4.032 12.208,-11.76 0,-9.52 -6.44,-10.976 -9.912,-11.928 l -5.04,-1.568 c -4.2,-1.288 -6.048,-4.088 -6.048,-8.12 0,-4.648 2.576,-7.84 6.496,-7.84 6.384,0 9.52,7.784 10.64,13.16 l 2.296,0 -0.56,-13.272 -2.016,0 0,5.712 c -1.568,-4.536 -4.816,-6.552 -10.192,-6.552 l -0.224,0 c -6.272,0 -10.528,4.536 -10.528,11.312 0,5.824 2.632,8.736 9.632,10.808 l 4.48,1.4 c 1.68,0.504 6.888,1.176 6.888,8.624 0,3.472 -1.512,9.128 -7.672,9.128 z"
         style="font-style:normal;font-variant:normal;font-weight:normal;font-stretch:normal;font-family:'Berenis ADF Pro';-inkscape-font-specification:'Berenis ADF Pro'"
         id="path13878"
         inkscape:export-xdpi="90"
         inkscape:export-ydpi="90" /><path
         d="m 464.03722,-342.45465 0,20.72 -3.92,0 0,0.84 12.768,0 0,-0.84 -4.088,0 0,-12.096 c 0,-5.04 2.464,-8.68 5.712,-8.68 3.584,0 4.144,4.088 4.144,7 l 0,13.776 -4.032,0 0,0.84 12.88,0 0,-0.84 -3.976,0 0,-11.592 c 0,-5.656 2.184,-9.184 5.656,-9.184 3.64,0 4.144,4.816 4.144,7.56 l 0,13.216 -4.032,0 0,0.84 12.88,0 0,-0.84 -4.032,0 0,-14.112 c 0,-4.704 -2.352,-8.12 -7.616,-8.12 -3.304,0 -5.544,1.68 -7.672,5.096 -0.896,-2.968 -3.64,-5.096 -7,-5.096 -2.912,0 -5.152,1.456 -7.056,4.592 l 0,-3.92 -9.016,0 0,0.84 4.256,0 z"
         style="font-style:normal;font-variant:normal;font-weight:normal;font-stretch:normal;font-family:'Berenis ADF Pro';-inkscape-font-specification:'Berenis ADF Pro'"
         id="path13880"
         inkscape:export-xdpi="90"
         inkscape:export-ydpi="90" /><path
         d="m 512.66185,-343.29465 -9.352,0 0,0.84 4.592,0 0,20.72 -3.976,0 0,0.84 12.88,0 0,-0.84 -4.144,0 0,-21.56 z m -2.576,-10.976 c -1.456,0 -2.688,1.176 -2.688,2.744 0,1.568 1.232,2.688 2.688,2.688 1.4,0 2.632,-1.12 2.632,-2.688 0,-1.568 -1.232,-2.744 -2.632,-2.744 z"
         style="font-style:normal;font-variant:normal;font-weight:normal;font-stretch:normal;font-family:'Berenis ADF Pro';-inkscape-font-specification:'Berenis ADF Pro'"
         id="path13882"
         inkscape:export-xdpi="90"
         inkscape:export-ydpi="90" /><path
         d="m 535.88347,-328.62265 -2.464,0 c -0.168,4.704 -1.456,7.056 -3.808,7.056 -2.52,0 -2.8,-3.416 -2.8,-6.048 l 0,-14.728 6.832,0 0,-0.952 -6.832,0 0,-9.8 -2.24,0 c -0.504,5.264 -2.688,9.52 -6.608,9.8 l 0,0.952 4.032,0 0,14.56 c 0,3.864 0.168,7.56 6.384,7.56 5.992,0 7.504,-4.816 7.504,-8.4 z"
         style="font-style:normal;font-variant:normal;font-weight:normal;font-stretch:normal;font-family:'Berenis ADF Pro';-inkscape-font-specification:'Berenis ADF Pro'"
         id="path13884"
         inkscape:export-xdpi="90"
         inkscape:export-ydpi="90" /><path
         d="m 536.86172,-360.93465 4.592,0 0,39.2 -3.92,0 0,0.84 12.768,0 0,-0.84 -4.088,0 0,-10.528 c 0,-3.696 2.352,-10.36 6.272,-10.36 l 0.056,0 c 4.032,0 4.48,4.816 4.48,7.56 l 0,13.328 -3.92,0 0,0.84 12.712,0 0,-0.84 -3.92,0 0,-13.048 c 0,-5.208 -1.344,-9.184 -7.896,-9.184 -3.192,0 -5.6,1.4 -7.784,4.592 l 0,-22.4 -9.352,0 0,0.84 z"
         style="font-style:normal;font-variant:normal;font-weight:normal;font-stretch:normal;font-family:'Berenis ADF Pro';-inkscape-font-specification:'Berenis ADF Pro'"
         id="path13886"
         inkscape:export-xdpi="90"
         inkscape:export-ydpi="90" /></g></g></svg>